<svg xmlns="http://www.w3.org/2000/svg" viewBox="0 0 32 32" id="running-shoe">
  <defs>
    <linearGradient id="a" x1="5.56" x2="22.01" y1="27.72" y2="11.26" gradientUnits="userSpaceOnUse">
      <stop offset="0" stop-color="#c21500"></stop>
      <stop offset=".21" stop-color="#cd3500"></stop>
      <stop offset=".66" stop-color="#e98500"></stop>
      <stop offset="1" stop-color="#ffc500"></stop>
    </linearGradient>
  </defs>
  <g>
    <path fill="url(#a)" d="M26.58,16.47l-1.86-.73A18.92,18.92,0,0,1,18,10.06L15.22,6.32a.52.52,0,0,0-.1-.11A2.41,2.41,0,0,0,11,7.91v.88a1.75,1.75,0,0,1-1,1.58,1.78,1.78,0,0,1-1.34.1,1.76,1.76,0,0,1-1-.89l-.42-.85A2.24,2.24,0,0,0,3,9.74v7.54A3,3,0,0,0,2,19.5v3a4,4,0,0,0,4,4H27a3,3,0,0,0,3-3v-2A5.37,5.37,0,0,0,26.58,16.47ZM5,9.74a.25.25,0,0,1,.45-.11l.42.85A3.76,3.76,0,0,0,13,8.79V7.91a.43.43,0,0,1,.67-.32l2.69,3.66.21.26-1.28,1.28a1,1,0,0,0,0,1.42,1,1,0,0,0,1.42,0l1.15-1.16c.35.38.71.74,1.09,1.09l-.66.65a1,1,0,0,0,0,1.42,1,1,0,0,0,1.42,0l.78-.78c.41.31.83.62,1.26.9l-.46.46a1,1,0,0,0,0,1.42,1,1,0,0,0,1.42,0l.83-.84.36.2,1.94.76a3.38,3.38,0,0,1,2,2.17H11a1,1,0,0,1-1-1,3,3,0,0,0-3-3H5ZM28,23.5a1,1,0,0,1-1,1H6a2,2,0,0,1-2-2v-3a1,1,0,0,1,1-1H7a1,1,0,0,1,1,1,3,3,0,0,0,3,3H28Z"></path>
  </g>
</svg>
